<svg width="46" height="46" viewBox="0 0 46 46" fill="none" xmlns="http://www.w3.org/2000/svg">
<path d="M14.95 3.8335H31.05C37.1834 3.8335 42.1667 8.81683 42.1667 14.9502V31.0502C42.1667 33.9985 40.9955 36.8261 38.9107 38.9108C36.8259 40.9956 33.9984 42.1668 31.05 42.1668H14.95C8.81671 42.1668 3.83337 37.1835 3.83337 31.0502V14.9502C3.83337 12.0018 5.00459 9.17427 7.08937 7.08949C9.17415 5.00471 12.0017 3.8335 14.95 3.8335ZM14.5667 7.66683C12.7367 7.66683 10.9817 8.39379 9.68767 9.68779C8.39367 10.9818 7.66671 12.7368 7.66671 14.5668V31.4335C7.66671 35.2477 10.7525 38.3335 14.5667 38.3335H31.4334C33.2634 38.3335 35.0184 37.6065 36.3124 36.3125C37.6064 35.0185 38.3334 33.2635 38.3334 31.4335V14.5668C38.3334 10.7527 35.2475 7.66683 31.4334 7.66683H14.5667ZM33.0625 10.5418C33.698 10.5418 34.3073 10.7942 34.7567 11.2436C35.206 11.6929 35.4584 12.3022 35.4584 12.9377C35.4584 13.5731 35.206 14.1825 34.7567 14.6318C34.3073 15.0811 33.698 15.3335 33.0625 15.3335C32.4271 15.3335 31.8177 15.0811 31.3684 14.6318C30.9191 14.1825 30.6667 13.5731 30.6667 12.9377C30.6667 12.3022 30.9191 11.6929 31.3684 11.2436C31.8177 10.7942 32.4271 10.5418 33.0625 10.5418ZM23 13.4168C25.5417 13.4168 27.9793 14.4265 29.7765 16.2237C31.5737 18.0209 32.5834 20.4585 32.5834 23.0002C32.5834 25.5418 31.5737 27.9794 29.7765 29.7766C27.9793 31.5738 25.5417 32.5835 23 32.5835C20.4584 32.5835 18.0208 31.5738 16.2236 29.7766C14.4264 27.9794 13.4167 25.5418 13.4167 23.0002C13.4167 20.4585 14.4264 18.0209 16.2236 16.2237C18.0208 14.4265 20.4584 13.4168 23 13.4168ZM23 17.2502C21.475 17.2502 20.0125 17.856 18.9342 18.9343C17.8558 20.0126 17.25 21.4752 17.25 23.0002C17.25 24.5252 17.8558 25.9877 18.9342 27.066C20.0125 28.1444 21.475 28.7502 23 28.7502C24.525 28.7502 25.9876 28.1444 27.0659 27.066C28.1442 25.9877 28.75 24.5252 28.75 23.0002C28.75 21.4752 28.1442 20.0126 27.0659 18.9343C25.9876 17.856 24.525 17.2502 23 17.2502Z" fill="black"/>
</svg>
