<svg width="255" height="114" viewBox="0 0 255 114" fill="none" xmlns="http://www.w3.org/2000/svg">
<path d="M110.155 63.0874C110.155 77.3619 73.0339 113.229 59.4363 113.229C45.8389 113.229 55.0627 79.6291 59.4363 66.7056C64.9476 50.4228 70.4594 45.2534 84.0571 45.2534C97.6547 45.2534 110.155 48.8129 110.155 63.0874Z" fill="#637DBD"/>
<path d="M16.2497 40.3502C26.8242 41.8045 49.5173 76.5311 48.0969 87.9133C46.6765 99.295 22.749 88.151 13.6324 83.1734C2.14547 76.9011 -1.10816 71.7607 0.312211 60.3785C1.73257 48.9968 5.67515 38.896 16.2497 40.3502Z" fill="#C399FF"/>
<path d="M82.1045 10.1526C84.1867 20.9039 59.3665 54.1088 48.3582 56.3764C37.3499 58.6436 39.9157 31.7986 41.5716 21.3357C43.6581 8.15245 47.3664 3.33984 58.3745 1.07236C69.3831 -1.19515 80.0219 -0.59876 82.1045 10.1526Z" fill="#D4ADCF"/>
<path d="M138.955 75.6672C136.888 75.6672 134.973 75.2952 133.209 74.5512C131.446 73.7799 129.903 72.7186 128.58 71.3686C127.285 70.0185 126.279 68.4478 125.563 66.6566C124.846 64.8653 124.488 62.9505 124.488 60.9112C124.488 58.8445 124.846 56.9158 125.563 55.1245C126.279 53.3332 127.285 51.7765 128.58 50.4538C129.903 49.1038 131.432 48.0565 133.168 47.3125C134.931 46.541 136.847 46.1552 138.913 46.1552C141.173 46.1552 143.157 46.541 144.865 47.3125C146.574 48.084 148.089 49.1312 149.412 50.4538L146.725 53.1405C145.816 52.1211 144.7 51.3218 143.377 50.7432C142.082 50.1645 140.594 49.8752 138.913 49.8752C137.398 49.8752 136.006 50.1506 134.739 50.7018C133.471 51.2252 132.369 51.9832 131.432 52.9752C130.495 53.9672 129.765 55.1385 129.241 56.4885C128.745 57.8386 128.497 59.3131 128.497 60.9112C128.497 62.5093 128.745 63.9838 129.241 65.3339C129.765 66.6839 130.495 67.8552 131.432 68.8472C132.369 69.8392 133.471 70.6106 134.739 71.1619C136.006 71.6853 137.398 71.9472 138.913 71.9472C140.705 71.9472 142.261 71.6579 143.584 71.0792C144.907 70.4732 146.023 69.6599 146.932 68.6406L149.619 71.2859C148.296 72.6639 146.739 73.7385 144.948 74.5099C143.185 75.2813 141.187 75.6672 138.955 75.6672ZM162.138 75.6672C160.181 75.6672 158.418 75.2265 156.847 74.3446C155.276 73.4352 154.036 72.2092 153.127 70.6659C152.218 69.1226 151.763 67.3732 151.763 65.4166C151.763 63.4878 152.204 61.7518 153.085 60.2085C153.995 58.6652 155.207 57.4531 156.723 56.5712C158.266 55.6618 159.988 55.2072 161.89 55.2072C163.708 55.2072 165.306 55.6205 166.684 56.4472C168.09 57.2739 169.178 58.4172 169.95 59.8779C170.749 61.3385 171.148 62.9918 171.148 64.8379C171.148 65.1133 171.134 65.4166 171.107 65.7472C171.08 66.0505 171.024 66.4085 170.942 66.8219H154.367V63.7219H168.958L167.594 64.9205C167.594 63.5979 167.359 62.4819 166.891 61.5725C166.422 60.6358 165.761 59.9192 164.907 59.4232C164.053 58.8998 163.019 58.6379 161.807 58.6379C160.539 58.6379 159.423 58.9132 158.459 59.4645C157.494 60.0158 156.75 60.7872 156.227 61.7792C155.703 62.7712 155.442 63.9425 155.442 65.2925C155.442 66.6705 155.717 67.8826 156.268 68.9299C156.819 69.9493 157.605 70.7486 158.624 71.3272C159.644 71.8785 160.815 72.1539 162.138 72.1539C163.24 72.1539 164.246 71.9612 165.155 71.5752C166.092 71.1893 166.891 70.6106 167.552 69.8392L169.95 72.2779C169.013 73.38 167.855 74.2206 166.478 74.7992C165.127 75.3779 163.681 75.6672 162.138 75.6672ZM175.205 75.2539V45.7418H178.925V75.2539H175.205ZM184.367 75.2539V45.7418H188.087V75.2539H184.367ZM193.571 75.2539V55.6205H197.291V75.2539H193.571ZM195.431 51.6938C194.742 51.6938 194.178 51.4732 193.736 51.0325C193.296 50.5639 193.075 49.9852 193.075 49.2965C193.075 48.6352 193.296 48.084 193.736 47.6432C194.178 47.1747 194.742 46.9405 195.431 46.9405C196.12 46.9405 196.685 47.1747 197.126 47.6432C197.567 48.084 197.787 48.6352 197.787 49.2965C197.787 49.9852 197.567 50.5639 197.126 51.0325C196.685 51.4732 196.12 51.6938 195.431 51.6938ZM209.015 75.6672C207.913 75.6672 206.866 75.5293 205.874 75.2539C204.909 74.9506 204.013 74.5373 203.187 74.0139C202.36 73.4626 201.644 72.8152 201.037 72.0712L203.435 69.6739C204.151 70.5558 204.978 71.2172 205.915 71.6579C206.852 72.0712 207.899 72.2779 209.056 72.2779C210.214 72.2779 211.109 72.0852 211.743 71.6992C212.377 71.2859 212.694 70.7212 212.694 70.0046C212.694 69.2879 212.432 68.7372 211.908 68.3512C211.412 67.9379 210.765 67.6072 209.966 67.3592C209.166 67.0838 208.312 66.8219 207.403 66.5739C206.521 66.2985 205.681 65.9539 204.881 65.5405C204.082 65.1272 203.421 64.5625 202.897 63.8459C202.401 63.1293 202.153 62.1786 202.153 60.9939C202.153 59.8091 202.443 58.7892 203.021 57.9352C203.6 57.0532 204.399 56.3785 205.419 55.9099C206.466 55.4412 207.72 55.2072 209.18 55.2072C210.723 55.2072 212.087 55.4826 213.272 56.0339C214.485 56.5572 215.477 57.3565 216.248 58.4312L213.851 60.8285C213.3 60.1119 212.611 59.5611 211.784 59.1752C210.985 58.7892 210.076 58.5965 209.056 58.5965C207.982 58.5965 207.155 58.7892 206.576 59.1752C206.025 59.5332 205.75 60.0432 205.75 60.7045C205.75 61.3659 205.998 61.8758 206.494 62.2339C206.99 62.5919 207.637 62.8952 208.436 63.1432C209.263 63.3912 210.117 63.6532 210.999 63.9285C211.881 64.1765 212.721 64.5212 213.52 64.9619C214.319 65.4026 214.967 65.9952 215.463 66.7392C215.986 67.4832 216.248 68.4613 216.248 69.6739C216.248 71.5199 215.587 72.9806 214.264 74.0552C212.969 75.1299 211.219 75.6672 209.015 75.6672ZM223.224 75.2539V52.6858C223.224 51.2252 223.54 49.9578 224.174 48.8832C224.808 47.781 225.676 46.913 226.778 46.2792C227.908 45.6454 229.217 45.3285 230.705 45.3285C231.835 45.3285 232.813 45.5214 233.64 45.9072C234.466 46.2929 235.224 46.8578 235.913 47.6018L233.474 49.9992C233.116 49.6132 232.716 49.3239 232.276 49.1312C231.835 48.9105 231.297 48.8005 230.664 48.8005C229.479 48.8005 228.556 49.1451 227.894 49.8338C227.26 50.5226 226.944 51.4732 226.944 52.6858V75.2539H223.224ZM218.388 59.0099V55.6205H233.185V59.0099H218.388ZM242.724 75.4193L234.21 55.6205H238.343L244.667 71.1206H243.344L249.999 55.6205H254.132L244.956 75.4193H242.724ZM237.103 83.4793L242.89 71.6166L244.956 75.4193L241.236 83.4793H237.103Z" fill="#303030"/>
</svg>
