<svg width="111" height="114" viewBox="0 0 111 114" fill="none" xmlns="http://www.w3.org/2000/svg">
<path d="M110.155 63.0874C110.155 77.3619 73.0339 113.229 59.4363 113.229C45.8389 113.229 55.0627 79.6291 59.4363 66.7056C64.9476 50.4228 70.4594 45.2534 84.0571 45.2534C97.6547 45.2534 110.155 48.8129 110.155 63.0874Z" fill="#637DBD"/>
<path d="M16.2497 40.3502C26.8242 41.8045 49.5173 76.5311 48.0969 87.9133C46.6765 99.295 22.749 88.151 13.6324 83.1734C2.14547 76.9011 -1.10816 71.7607 0.312211 60.3785C1.73257 48.9968 5.67515 38.896 16.2497 40.3502Z" fill="#C399FF"/>
<path d="M82.1045 10.1526C84.1867 20.9039 59.3665 54.1088 48.3582 56.3764C37.3499 58.6436 39.9157 31.7986 41.5716 21.3357C43.6581 8.15245 47.3664 3.33984 58.3745 1.07236C69.3831 -1.19515 80.0219 -0.59876 82.1045 10.1526Z" fill="#D4ADCF"/>
</svg>
