<svg width="289" height="124" viewBox="0 0 289 124" fill="none" xmlns="http://www.w3.org/2000/svg">
<path d="M120.013 68.7332C120.013 84.2851 79.5696 123.362 64.7551 123.362C49.941 123.362 59.9901 86.7551 64.7551 72.6752C70.7596 54.9353 76.7647 49.3032 91.5792 49.3032C106.394 49.3032 120.013 53.1813 120.013 68.7332Z" fill="#637DBD"/>
<path d="M17.7039 43.9611C29.2247 45.5455 53.9485 83.3797 52.401 95.7805C50.8535 108.181 24.7847 96.0394 14.8523 90.6164C2.33746 83.7827 -1.20732 78.1824 0.34015 65.7816C1.88762 53.3814 6.18301 42.3767 17.7039 43.9611Z" fill="#C399FF"/>
<path d="M89.452 11.0611C91.7205 22.7745 64.6792 58.9509 52.6858 61.4214C40.6924 63.8915 43.4878 34.6441 45.2919 23.2449C47.565 8.882 51.6052 3.63872 63.5984 1.16832C75.5922 -1.30211 87.183 -0.652342 89.452 11.0611Z" fill="#D4ADCF"/>
<path d="M162.648 68.9287C160.396 68.9287 158.309 68.5234 156.388 67.7128C154.467 66.8724 152.785 65.7162 151.344 64.2454C149.933 62.7745 148.838 61.0633 148.057 59.1117C147.276 57.1601 146.886 55.074 146.886 52.8522C146.886 50.6006 147.276 48.4991 148.057 46.5477C148.838 44.5962 149.933 42.9 151.344 41.459C152.785 39.988 154.452 38.8471 156.343 38.0365C158.264 37.196 160.351 36.7756 162.603 36.7756C165.064 36.7756 167.226 37.196 169.087 38.0365C170.949 38.8771 172.6 40.018 174.041 41.459L171.114 44.3861C170.123 43.2753 168.907 42.4047 167.466 41.7742C166.055 41.1438 164.434 40.8286 162.603 40.8286C160.952 40.8286 159.435 41.1288 158.054 41.7292C156.673 42.2996 155.472 43.1252 154.452 44.206C153.431 45.2868 152.635 46.5627 152.065 48.0337C151.525 49.5048 151.254 51.111 151.254 52.8522C151.254 54.5932 151.525 56.1998 152.065 57.6706C152.635 59.1415 153.431 60.4176 154.452 61.4984C155.472 62.5792 156.673 63.4196 158.054 64.0202C159.435 64.5904 160.952 64.8758 162.603 64.8758C164.554 64.8758 166.25 64.5606 167.691 63.9301C169.132 63.2698 170.348 62.3838 171.339 61.2732L174.266 64.1553C172.825 65.6566 171.129 66.8274 169.177 67.6678C167.256 68.5082 165.079 68.9287 162.648 68.9287ZM187.905 68.9287C185.773 68.9287 183.852 68.4486 182.141 67.4877C180.43 66.497 179.079 65.1612 178.088 63.4798C177.097 61.7984 176.602 59.8924 176.602 57.7607C176.602 55.6594 177.082 53.768 178.043 52.0866C179.034 50.4054 180.355 49.0845 182.006 48.1238C183.687 47.1331 185.563 46.6377 187.635 46.6377C189.616 46.6377 191.357 47.088 192.859 47.9887C194.39 48.8893 195.576 50.1352 196.416 51.7264C197.287 53.3177 197.722 55.119 197.722 57.1303C197.722 57.4303 197.707 57.7607 197.677 58.121C197.647 58.4514 197.587 58.8415 197.497 59.2918H179.439V55.9144H195.335L193.849 57.2203C193.849 55.7793 193.594 54.5634 193.084 53.5727C192.573 52.552 191.853 51.7714 190.922 51.231C189.992 50.6606 188.866 50.3754 187.545 50.3754C186.164 50.3754 184.948 50.6756 183.897 51.2761C182.846 51.8765 182.036 52.7171 181.465 53.7979C180.895 54.8786 180.61 56.1547 180.61 57.6256C180.61 59.1269 180.91 60.4474 181.51 61.5885C182.111 62.6991 182.967 63.5699 184.077 64.2003C185.188 64.8009 186.464 65.101 187.905 65.101C189.106 65.101 190.202 64.891 191.192 64.4705C192.213 64.05 193.084 63.4196 193.804 62.5792L196.416 65.2361C195.396 66.4367 194.135 67.3526 192.633 67.983C191.163 68.6135 189.586 68.9287 187.905 68.9287ZM202.141 68.4784V36.3253H206.194V68.4784H202.141ZM212.124 68.4784V36.3253H216.177V68.4784H212.124ZM222.152 68.4784V47.088H226.204V68.4784H222.152ZM224.178 42.81C223.428 42.81 222.812 42.5698 222.332 42.0895C221.852 41.5791 221.611 40.9486 221.611 40.1981C221.611 39.4776 221.852 38.8771 222.332 38.3968C222.812 37.8864 223.428 37.6313 224.178 37.6313C224.929 37.6313 225.544 37.8864 226.024 38.3968C226.505 38.8771 226.745 39.4776 226.745 40.1981C226.745 40.9486 226.505 41.5791 226.024 42.0895C225.544 42.5698 224.929 42.81 224.178 42.81ZM238.977 68.9287C237.777 68.9287 236.636 68.7784 235.555 68.4784C234.504 68.148 233.528 67.6977 232.628 67.1274C231.727 66.5268 230.946 65.8215 230.286 65.0109L232.898 62.399C233.679 63.3599 234.579 64.0804 235.6 64.5606C236.62 65.0109 237.761 65.2361 239.022 65.2361C240.283 65.2361 241.259 65.0261 241.949 64.6056C242.64 64.1553 242.985 63.54 242.985 62.7593C242.985 61.9785 242.7 61.3785 242.13 60.958C241.589 60.5077 240.884 60.1474 240.013 59.8772C239.142 59.5772 238.212 59.2918 237.221 59.0216C236.26 58.7216 235.345 58.3461 234.474 57.8958C233.603 57.4455 232.883 56.8302 232.313 56.0495C231.772 55.2687 231.502 54.233 231.502 52.9422C231.502 51.6513 231.817 50.5405 232.448 49.6099C233.078 48.6491 233.949 47.9137 235.06 47.4033C236.201 46.8929 237.566 46.6377 239.157 46.6377C240.839 46.6377 242.325 46.9379 243.616 47.5384C244.937 48.1088 246.018 48.9794 246.858 50.1502L244.246 52.7621C243.645 51.9815 242.895 51.3811 241.994 50.9608C241.124 50.5405 240.133 50.3304 239.022 50.3304C237.852 50.3304 236.951 50.5405 236.32 50.9608C235.72 51.3511 235.42 51.9065 235.42 52.627C235.42 53.3475 235.69 53.9031 236.23 54.2932C236.771 54.6833 237.476 55.0137 238.347 55.2839C239.248 55.5541 240.178 55.8395 241.139 56.1395C242.1 56.4097 243.015 56.7852 243.886 57.2654C244.757 57.7455 245.462 58.3912 246.002 59.2017C246.573 60.0123 246.858 61.0779 246.858 62.399C246.858 64.4103 246.137 66.0016 244.696 67.1725C243.285 68.3433 241.379 68.9287 238.977 68.9287ZM254.458 68.4784V43.8908C254.458 42.2996 254.803 40.9186 255.493 39.7478C256.184 38.5469 257.129 37.6013 258.331 36.9107C259.561 36.2202 260.987 35.875 262.609 35.875C263.839 35.875 264.905 36.0851 265.806 36.5054C266.707 36.9258 267.532 37.5412 268.283 38.3518L265.626 40.9637C265.235 40.5433 264.8 40.2281 264.32 40.018C263.839 39.7778 263.254 39.6577 262.564 39.6577C261.272 39.6577 260.267 40.033 259.546 40.7835C258.856 41.534 258.511 42.5698 258.511 43.8908V68.4784H254.458ZM249.189 50.7807V47.088H265.311V50.7807H249.189ZM275.703 68.6585L266.427 47.088H270.93L277.82 63.9752H276.379L283.629 47.088H288.132L278.135 68.6585H275.703ZM269.579 77.4398L275.884 64.5156L278.135 68.6585L274.082 77.4398H269.579Z" fill="#303030"/>
<path d="M159.329 94.5523C158.452 94.5523 157.635 94.3901 156.879 94.0659C156.134 93.7417 155.48 93.2914 154.915 92.7149C154.363 92.1385 153.931 91.4659 153.619 90.6975C153.319 89.9291 153.168 89.1005 153.168 88.2117C153.168 87.3229 153.319 86.5005 153.619 85.7439C153.919 84.9756 154.345 84.3091 154.897 83.7445C155.462 83.1681 156.111 82.7178 156.843 82.3935C157.588 82.0693 158.398 81.9072 159.275 81.9072C160.187 81.9072 161.016 82.0755 161.76 82.4115C162.517 82.7476 163.177 83.2103 163.742 83.7985L163.075 84.465C162.619 83.9488 162.067 83.5464 161.418 83.2582C160.77 82.9699 160.055 82.8258 159.275 82.8258C158.542 82.8258 157.863 82.9638 157.239 83.2401C156.615 83.5041 156.068 83.8824 155.6 84.375C155.143 84.8551 154.789 85.4259 154.537 86.0862C154.285 86.7346 154.159 87.4433 154.159 88.2117C154.159 88.9801 154.285 89.695 154.537 90.3552C154.801 91.0155 155.161 91.5919 155.618 92.0845C156.074 92.577 156.615 92.9609 157.239 93.2373C157.876 93.5013 158.56 93.6336 159.293 93.6336C160.097 93.6336 160.83 93.4895 161.49 93.2013C162.15 92.9013 162.709 92.4926 163.165 91.9764L163.832 92.6249C163.28 93.2255 162.619 93.6995 161.85 94.0479C161.094 94.3839 160.253 94.5523 159.329 94.5523ZM169.501 94.5523C168.673 94.5523 167.922 94.3603 167.25 93.9758C166.589 93.5914 166.067 93.069 165.683 92.4087C165.298 91.7484 165.106 91.0037 165.106 90.1751C165.106 89.3465 165.292 88.608 165.665 87.9595C166.037 87.2992 166.547 86.7769 167.196 86.3924C167.856 86.0079 168.588 85.816 169.393 85.816C170.162 85.816 170.834 85.9899 171.411 86.3384C171.999 86.6744 172.456 87.1428 172.78 87.7434C173.116 88.344 173.284 89.0341 173.284 89.8149C173.284 89.8869 173.278 89.9832 173.266 90.1031C173.254 90.2111 173.236 90.3491 173.212 90.5174H165.755V89.7248H172.69L172.383 89.977C172.407 89.3167 172.299 88.7403 172.059 88.2477C171.819 87.7434 171.47 87.3533 171.015 87.0769C170.558 86.8005 170.011 86.6626 169.375 86.6626C168.714 86.6626 168.132 86.8129 167.628 87.1129C167.124 87.4011 166.727 87.8036 166.439 88.3198C166.163 88.836 166.025 89.4366 166.025 90.1211C166.025 90.8416 166.169 91.472 166.457 92.0124C166.757 92.541 167.172 92.9553 167.7 93.2553C168.228 93.5435 168.847 93.6876 169.555 93.6876C170.096 93.6876 170.594 93.5914 171.051 93.3994C171.519 93.1951 171.909 92.8951 172.221 92.4988L172.834 93.0932C172.449 93.5497 171.963 93.91 171.375 94.174C170.798 94.4262 170.174 94.5523 169.501 94.5523ZM175.374 94.3721V81.7271H176.293V94.3721H175.374ZM178.998 94.3721V81.7271H179.916V94.3721H178.998ZM186.873 94.5523C186.248 94.5523 185.671 94.4262 185.143 94.174C184.627 93.9218 184.194 93.5734 183.846 93.1292C183.498 92.6727 183.27 92.1447 183.162 91.5441V88.8061C183.27 88.1937 183.498 87.6651 183.846 87.221C184.207 86.7645 184.645 86.4166 185.161 86.1762C185.689 85.9359 186.26 85.816 186.873 85.816C187.665 85.816 188.373 86.0079 188.998 86.3924C189.622 86.7769 190.115 87.2992 190.475 87.9595C190.836 88.6198 191.016 89.3645 191.016 90.1931C191.016 91.0217 190.836 91.7665 190.475 92.4267C190.115 93.0752 189.622 93.5914 188.998 93.9758C188.373 94.3603 187.665 94.5523 186.873 94.5523ZM182.622 97.9207V85.9961H183.54V88.0856L183.324 90.1211L183.54 92.1745V97.9207H182.622ZM186.711 93.6876C187.371 93.6876 187.953 93.5373 188.458 93.2373C188.962 92.9373 189.358 92.523 189.647 91.9944C189.935 91.4659 190.079 90.8596 190.079 90.1751C190.079 89.4906 189.935 88.8844 189.647 88.3558C189.358 87.8272 188.962 87.4191 188.458 87.1309C187.965 86.8309 187.401 86.6806 186.765 86.6806C186.116 86.6806 185.545 86.8309 185.053 87.1309C184.573 87.4191 184.194 87.8272 183.919 88.3558C183.642 88.8844 183.504 89.4968 183.504 90.1931C183.504 90.8776 183.636 91.4839 183.901 92.0124C184.176 92.5286 184.555 92.9373 185.035 93.2373C185.527 93.5373 186.086 93.6876 186.711 93.6876ZM199.498 94.3721V89.4006C199.498 88.5838 199.258 87.9235 198.778 87.4191C198.297 86.9148 197.661 86.6626 196.868 86.6626C196.328 86.6626 195.848 86.7825 195.427 87.0229C195.019 87.2508 194.695 87.5694 194.454 87.9775C194.226 88.3856 194.112 88.8602 194.112 89.4006L193.644 89.1304C193.644 88.4937 193.794 87.9297 194.094 87.4371C194.394 86.9328 194.803 86.5365 195.319 86.2483C195.835 85.9601 196.424 85.816 197.084 85.816C197.745 85.816 198.321 85.9663 198.814 86.2663C199.318 86.5545 199.708 86.9626 199.984 87.4912C200.261 88.0198 200.399 88.6198 200.399 89.2925V94.3721H199.498ZM193.193 94.3721V81.7271H194.112V94.3721H193.193ZM206.74 94.5523C205.923 94.5523 205.184 94.3603 204.524 93.9758C203.876 93.5796 203.359 93.051 202.975 92.3907C202.591 91.718 202.399 90.9739 202.399 90.1571C202.399 89.3403 202.591 88.608 202.975 87.9595C203.359 87.2992 203.876 86.7769 204.524 86.3924C205.184 86.0079 205.923 85.816 206.74 85.816C207.544 85.816 208.271 86.0079 208.919 86.3924C209.58 86.7769 210.102 87.2992 210.486 87.9595C210.87 88.608 211.063 89.3403 211.063 90.1571C211.063 90.9857 210.87 91.7304 210.486 92.3907C210.102 93.051 209.58 93.5796 208.919 93.9758C208.271 94.3603 207.544 94.5523 206.74 94.5523ZM206.74 93.6876C207.376 93.6876 207.947 93.5317 208.451 93.2193C208.967 92.9069 209.37 92.487 209.658 91.9584C209.958 91.418 210.108 90.8118 210.108 90.1391C210.108 89.4788 209.958 88.89 209.658 88.3738C209.37 87.8576 208.967 87.449 208.451 87.1489C207.947 86.8365 207.376 86.6806 206.74 86.6806C206.091 86.6806 205.509 86.8365 204.993 87.1489C204.488 87.449 204.086 87.8576 203.786 88.3738C203.485 88.89 203.335 89.4844 203.335 90.1571C203.335 90.8298 203.485 91.4298 203.786 91.9584C204.086 92.487 204.488 92.9069 204.993 93.2193C205.509 93.5317 206.091 93.6876 206.74 93.6876ZM219.534 94.3721V89.4006C219.534 88.5838 219.294 87.9235 218.814 87.4191C218.333 86.9148 217.697 86.6626 216.904 86.6626C216.364 86.6626 215.883 86.7825 215.463 87.0229C215.054 87.2508 214.73 87.5694 214.49 87.9775C214.262 88.3856 214.148 88.8602 214.148 89.4006L213.68 89.1304C213.68 88.4937 213.83 87.9297 214.13 87.4371C214.43 86.9328 214.838 86.5365 215.355 86.2483C215.871 85.9601 216.459 85.816 217.12 85.816C217.781 85.816 218.357 85.9719 218.85 86.2843C219.354 86.5844 219.744 86.9986 220.02 87.5272C220.296 88.0558 220.435 88.644 220.435 89.2925V94.3721H219.534ZM213.229 94.3721V85.9961H214.148V94.3721H213.229ZM226.829 94.5523C226.001 94.5523 225.25 94.3603 224.578 93.9758C223.917 93.5914 223.395 93.069 223.011 92.4087C222.627 91.7484 222.434 91.0037 222.434 90.1751C222.434 89.3465 222.62 88.608 222.993 87.9595C223.365 87.2992 223.875 86.7769 224.524 86.3924C225.184 86.0079 225.917 85.816 226.721 85.816C227.49 85.816 228.162 85.9899 228.739 86.3384C229.327 86.6744 229.783 87.1428 230.108 87.7434C230.444 88.344 230.612 89.0341 230.612 89.8149C230.612 89.8869 230.606 89.9832 230.594 90.1031C230.582 90.2111 230.564 90.3491 230.54 90.5174H223.083V89.7248H230.018L229.711 89.977C229.736 89.3167 229.627 88.7403 229.387 88.2477C229.147 87.7434 228.799 87.3533 228.342 87.0769C227.886 86.8005 227.34 86.6626 226.703 86.6626C226.043 86.6626 225.46 86.8129 224.956 87.1129C224.452 87.4011 224.055 87.8036 223.767 88.3198C223.491 88.836 223.353 89.4366 223.353 90.1211C223.353 90.8416 223.497 91.472 223.785 92.0124C224.086 92.541 224.5 92.9553 225.028 93.2553C225.557 93.5435 226.175 93.6876 226.883 93.6876C227.424 93.6876 227.922 93.5914 228.378 93.3994C228.847 93.1951 229.237 92.8951 229.549 92.4988L230.162 93.0932C229.778 93.5497 229.291 93.91 228.703 94.174C228.126 94.4262 227.502 94.5523 226.829 94.5523ZM240.442 94.5523C239.481 94.5523 238.652 94.3721 237.956 94.0119C237.259 93.6398 236.659 93.1292 236.155 92.4808L236.821 91.8323C237.29 92.469 237.818 92.9373 238.407 93.2373C239.007 93.5255 239.697 93.6696 240.478 93.6696C241.318 93.6696 242.003 93.4715 242.531 93.0752C243.059 92.6789 243.324 92.1267 243.324 91.418C243.324 90.8776 243.21 90.4391 242.982 90.1031C242.753 89.767 242.447 89.4906 242.063 89.2745C241.691 89.0583 241.276 88.8664 240.82 88.6981C240.376 88.5297 239.925 88.362 239.469 88.1937C239.025 88.0136 238.616 87.7974 238.244 87.5452C237.872 87.2812 237.566 86.9446 237.326 86.5365C237.097 86.1284 236.983 85.6117 236.983 84.9874C236.983 84.3631 237.133 83.8227 237.434 83.3662C237.746 82.8979 238.166 82.5376 238.695 82.2855C239.235 82.0333 239.853 81.9072 240.55 81.9072C241.343 81.9072 242.051 82.0631 242.676 82.3755C243.3 82.6755 243.822 83.1022 244.243 83.6544L243.576 84.3029C243.18 83.8104 242.735 83.4383 242.243 83.1861C241.763 82.9221 241.192 82.7898 240.532 82.7898C239.763 82.7898 239.139 82.9818 238.659 83.3662C238.19 83.7383 237.956 84.2607 237.956 84.9334C237.956 85.4377 238.07 85.8458 238.298 86.1582C238.526 86.4706 238.826 86.7346 239.199 86.9508C239.583 87.1551 239.997 87.3353 240.442 87.4912C240.898 87.6471 241.348 87.8154 241.793 87.9956C242.237 88.1757 242.645 88.4037 243.018 88.68C243.402 88.944 243.708 89.2863 243.936 89.7068C244.164 90.1273 244.279 90.6615 244.279 91.3099C244.279 92.3547 243.93 93.1591 243.234 93.7237C242.549 94.2759 241.618 94.5523 240.442 94.5523ZM247.984 94.3721V82.4476H248.903V94.3721H247.984ZM245.823 86.8067V85.9961H251.065V86.8067H245.823ZM256.398 94.5523C255.582 94.5523 254.843 94.3603 254.182 93.9758C253.534 93.5796 253.018 93.051 252.633 92.3907C252.249 91.718 252.057 90.9739 252.057 90.1571C252.057 89.3403 252.249 88.608 252.633 87.9595C253.018 87.2992 253.534 86.7769 254.182 86.3924C254.843 86.0079 255.582 85.816 256.398 85.816C257.203 85.816 257.929 86.0079 258.578 86.3924C259.238 86.7769 259.761 87.2992 260.145 87.9595C260.529 88.608 260.721 89.3403 260.721 90.1571C260.721 90.9857 260.529 91.7304 260.145 92.3907C259.761 93.051 259.238 93.5796 258.578 93.9758C257.929 94.3603 257.203 94.5523 256.398 94.5523ZM256.398 93.6876C257.035 93.6876 257.605 93.5317 258.109 93.2193C258.626 92.9069 259.028 92.487 259.316 91.9584C259.617 91.418 259.766 90.8118 259.766 90.1391C259.766 89.4788 259.617 88.89 259.316 88.3738C259.028 87.8576 258.626 87.449 258.109 87.1489C257.605 86.8365 257.035 86.6806 256.398 86.6806C255.75 86.6806 255.168 86.8365 254.651 87.1489C254.146 87.449 253.745 87.8576 253.444 88.3738C253.144 88.89 252.994 89.4844 252.994 90.1571C252.994 90.8298 253.144 91.4298 253.444 91.9584C253.745 92.487 254.146 92.9069 254.651 93.2193C255.168 93.5317 255.75 93.6876 256.398 93.6876ZM262.888 94.3721V85.9961H263.807V94.3721H262.888ZM263.807 89.3645L263.357 89.2024C263.357 88.1335 263.627 87.3049 264.167 86.7166C264.708 86.116 265.416 85.816 266.292 85.816C266.701 85.816 267.079 85.888 267.428 86.0321C267.788 86.1763 268.118 86.4104 268.418 86.7347L267.806 87.3831C267.577 87.1309 267.331 86.9508 267.067 86.8427C266.803 86.7346 266.491 86.6806 266.131 86.6806C265.446 86.6806 264.888 86.9148 264.455 87.3831C264.023 87.8396 263.807 88.4999 263.807 89.3645ZM273.462 94.5523C272.634 94.5523 271.884 94.3603 271.211 93.9758C270.551 93.5914 270.028 93.069 269.644 92.4087C269.259 91.7484 269.067 91.0037 269.067 90.1751C269.067 89.3465 269.254 88.608 269.626 87.9595C269.998 87.2992 270.508 86.7769 271.157 86.3924C271.817 86.0079 272.55 85.816 273.354 85.816C274.123 85.816 274.795 85.9899 275.372 86.3384C275.96 86.6744 276.417 87.1428 276.741 87.7434C277.077 88.344 277.245 89.0341 277.245 89.8149C277.245 89.8869 277.239 89.9832 277.227 90.1031C277.215 90.2111 277.197 90.3491 277.173 90.5174H269.716V89.7248H276.651L276.345 89.977C276.369 89.3167 276.261 88.7403 276.02 88.2477C275.78 87.7434 275.432 87.3533 274.976 87.0769C274.519 86.8005 273.973 86.6626 273.336 86.6626C272.676 86.6626 272.094 86.8129 271.589 87.1129C271.085 87.4011 270.689 87.8036 270.4 88.3198C270.124 88.836 269.986 89.4366 269.986 90.1211C269.986 90.8416 270.13 91.472 270.418 92.0124C270.718 92.541 271.133 92.9553 271.661 93.2553C272.19 93.5435 272.808 93.6876 273.517 93.6876C274.057 93.6876 274.555 93.5914 275.012 93.3994C275.48 93.1951 275.87 92.8951 276.182 92.4988L276.795 93.0932C276.41 93.5497 275.924 93.91 275.336 94.174C274.759 94.4262 274.135 94.5523 273.462 94.5523Z" fill="#303030"/>
</svg>
