<svg width="23" height="23" viewBox="0 0 23 23" fill="none" xmlns="http://www.w3.org/2000/svg">
<path d="M18.6731 19.3142L12.672 13.3132C12.1929 13.7214 11.6418 14.0373 11.0189 14.261C10.396 14.4846 9.76988 14.5964 9.14057 14.5964C7.60596 14.5964 6.3071 14.0651 5.24399 13.0027C4.18088 11.9402 3.64932 10.6417 3.64932 9.10704C3.64932 7.57243 4.18024 6.27325 5.24207 5.2095C6.30391 4.14575 7.60213 3.61324 9.13674 3.61196C10.6714 3.61068 11.9709 4.14224 13.0352 5.20662C14.0996 6.27101 14.6318 7.57019 14.6318 9.10417C14.6318 9.76989 14.5139 10.4142 14.2782 11.0371C14.0424 11.66 13.7326 12.1929 13.3486 12.6356L19.3497 18.6357L18.6731 19.3142ZM9.14153 13.6371C10.4129 13.6371 11.4863 13.1994 12.3615 12.3242C13.2368 11.4489 13.6744 10.3752 13.6744 9.10321C13.6744 7.83118 13.2368 6.75785 12.3615 5.88321C11.4863 5.00857 10.4129 4.57093 9.14153 4.57029C7.87014 4.56965 6.79649 5.00729 5.92057 5.88321C5.04466 6.75912 4.60702 7.83246 4.60766 9.10321C4.60829 10.374 5.04593 11.4473 5.92057 12.3232C6.79521 13.1991 7.86854 13.6368 9.14057 13.6361" fill="#303030" fill-opacity="0.6"/>
</svg>
