<svg width="33" height="33" viewBox="0 0 33 33" fill="none" xmlns="http://www.w3.org/2000/svg">
<path d="M6.0452 22.3634L15.708 12.8533C15.9188 12.6447 16.2034 12.5277 16.5 12.5277C16.7966 12.5277 17.0812 12.6447 17.292 12.8533L26.9548 22.3614C27.167 22.5698 27.4525 22.6867 27.7499 22.6867C28.0473 22.6867 28.3329 22.5698 28.545 22.3614C28.6495 22.2595 28.7325 22.1378 28.7892 22.0034C28.8459 21.869 28.8751 21.7246 28.8751 21.5787C28.8751 21.4328 28.8459 21.2884 28.7892 21.1539C28.7325 21.0195 28.6495 20.8978 28.545 20.7959L18.8843 11.2878C18.2479 10.663 17.3918 10.313 16.5 10.313C15.6082 10.313 14.7521 10.663 14.1158 11.2878L4.45502 20.7959C4.35024 20.8978 4.26695 21.0197 4.21008 21.1543C4.1532 21.2889 4.1239 21.4336 4.1239 21.5797C4.1239 21.7258 4.1532 21.8705 4.21008 22.0051C4.26695 22.1397 4.35024 22.2616 4.45502 22.3634C4.66716 22.5719 4.95268 22.6887 5.25011 22.6887C5.54754 22.6887 5.83307 22.5719 6.0452 22.3634Z" fill="#303030"/>
</svg>
